<?xml version="1.0" encoding="UTF-8" standalone="no"?>
<svg
   xmlns:dc="http://purl.org/dc/elements/1.1/"
   xmlns:cc="http://creativecommons.org/ns#"
   xmlns:rdf="http://www.w3.org/1999/02/22-rdf-syntax-ns#"
   xmlns:svg="http://www.w3.org/2000/svg"
   xmlns="http://www.w3.org/2000/svg"
   viewBox="0 0 1051.48 1106.2933"
   height="1106.2933"
   width="1051.48"
   xml:space="preserve"
   id="svg2"
   version="1.1"><metadata
     id="metadata8"><rdf:RDF><cc:Work
         rdf:about=""><dc:format>image/svg+xml</dc:format><dc:type
           rdf:resource="http://purl.org/dc/dcmitype/StillImage" /></cc:Work></rdf:RDF></metadata><defs
     id="defs6" /><g
     transform="matrix(1.3333333,0,0,-1.3333333,0,1106.2933)"
     id="g10"><g
       transform="scale(0.1)"
       id="g12"><path
         id="path14"
         style="fill:#040606;fill-opacity:1;fill-rule:nonzero;stroke:none"
         d="m 5036.21,8155.82 c 1330.51,-594.02 1019.95,-854.96 1559.92,-1199.94 539.98,-344.99 614.97,-284.99 869.96,-644.97 254.99,-359.98 119.99,-629.97 254.99,-959.95 134.99,-329.98 164.99,-539.97 164.99,-839.96 0,-299.99 -209.99,-584.97 -239.99,-1229.94 -30,-644.97 -75,-1124.94 -224.99,-1454.93 -149.99,-329.98 -224.99,-299.98 -284.98,-479.97 -60,-179.99 -120,-479.98 -674.97,-779.961 C 5906.17,266.211 5351.2,131.219 5036.21,176.219 4721.23,221.211 4464.43,356.211 4285.34,311.211 4106.26,266.211 3457.01,-197.602 2571.33,97.75 1571.38,431.199 1511.39,1016.17 911.418,1556.15 311.445,2096.12 356.441,2351.11 266.445,2561.09 176.453,2771.08 -123.531,3374.82 56.4609,4077.9 c 179.9921,703.09 104.9921,283.11 194.9921,808.08 89.992,524.98 -254.99206,839.96 209.985,1544.92 464.98,704.97 824.962,839.96 1229.942,1049.96 404.98,209.98 494.97,74.99 839.95,284.98 344.99,209.98 329.99,299.98 629.98,389.98 299.98,90 1276.47,267.17 1874.9,0" /><path
         id="path16"
         style="fill:#ffffff;fill-opacity:1;fill-rule:nonzero;stroke:none"
         d="m 3114.98,4109.35 c 0,436.76 0,1332.76 0,1332.76 h 86.14 c 0,0 0.13,-901.19 0.13,-1330.89 0,-6.04 0,-12.08 0,-20.19 -25.6,0 -60.21,0 -86.27,0 0,6.61 0,12.45 0,18.32 z m 361.65,1332.79 c 20.37,0 39.54,-0.03 58.67,0 28.63,0.03 57.33,0.64 85.96,-0.27 6.9,-0.22 15.96,-3.94 19.93,-8.63 130.84,-155.63 261.24,-311.53 391.54,-467.5 69.24,-82.88 138,-166.07 207.48,-248.8 6.35,-7.55 6.37,-12.6 0.43,-19.72 -66.11,-79.16 -132.06,-158.4 -197.95,-237.72 -63.85,-76.87 -127.53,-153.85 -191.3,-230.82 -35.94,-43.36 -71.83,-86.79 -108.18,-129.92 -3.25,-3.91 -9.74,-8.23 -14.73,-8.28 -83.61,-0.52 -167.17,-0.4 -251.85,-0.4 0,450.13 0,899.63 0,1352.06 z m 353.44,-1.29 c 2.45,-0.05 5.17,-3.64 7.15,-6 127.96,-153.01 460.13,-550.63 498.89,-596.04 7.84,-9.24 8.39,-16.95 0.62,-25.82 -9.48,-10.8 -18.69,-21.76 -29.53,-34.46 -184.17,220.64 -367.26,439.98 -553.09,662.6 28.12,0 52.05,0.18 75.96,-0.28 z m 1027.96,0.69 c -125.54,-151.29 -248.99,-300.1 -374.06,-450.86 -125.8,150.55 -249.67,298.87 -376.69,450.86 252.51,0 499.06,0 750.75,0 z m 103.03,-1351.46 c -27.72,0 -50.84,-0.37 -73.9,0.4 -4.07,0.07 -8.91,4.24 -11.73,7.59 -62.92,75 -125.54,150.18 -188.27,225.25 -62.69,75.11 -125.12,150.33 -188.36,225.05 -10.56,12.49 -13.68,21.84 0.82,33.48 9.63,7.74 16.82,17.75 26.72,28.49 144.67,-173.15 288.34,-345.12 434.72,-520.26 z m -869.2,1.2 c 112.04,134.8 222.03,267.19 334.25,402.28 112.6,-134.72 223.42,-267.43 336.08,-402.28 -224.51,0 -446.02,0 -670.33,0 z m -1356.2,-339.6 c 2.81,23.81 9.23,46.3 28.84,64.79 28.47,26.76 65.35,33.45 105.02,33.5 802.32,0.05 1604.7,0.05 2407.03,-0.1 17.45,0 35.22,-0.37 52.27,-3.24 42.91,-7.29 75.8,-26.11 87.7,-64.62 4.57,-14.83 6.49,-30.25 9.77,-45.73 44.52,0 89.72,0 134.7,0 0,158.64 0,316.09 0,474.33 -43.71,0 -86.24,0 -130.34,0 -1.33,-9.64 -2.77,-17.6 -3.49,-25.61 -4.1,-47.02 -39.71,-85.14 -92.78,-93.3 -26.6,-4.12 -54.71,-0.77 -81.99,-1.9 -12.1,-0.47 -18.74,3.35 -25.61,11.61 -91.5,110.04 -183.42,219.74 -275.22,329.61 -93.8,112.21 -187.47,224.53 -281.49,336.59 -6.71,8.02 -5.99,13.49 0.49,21.08 25.64,29.95 50.6,60.33 75.76,90.59 88.71,106.64 177.41,213.3 266.09,319.94 64.57,77.64 129.01,155.38 194.1,232.7 4.28,5.06 13.76,9.59 20.95,9.73 30.32,0.47 60.97,1.03 91.07,-1.86 48.65,-4.64 85.54,-24.52 99.91,-70.25 4.05,-12.88 4.8,-26.48 7.12,-39.9 45.35,0 90.55,0 135.35,0 0,158.81 0,316.28 0,474.88 -22.29,0 -43.23,0 -64.24,0 -21.49,0 -42.95,0 -65.33,0 -1.54,-8.97 -3.43,-16.34 -3.93,-23.75 -4.12,-60.2 -53.19,-100.21 -123.38,-100.21 -627.35,0.05 -1254.73,0.1 -1882.08,0.14 -189.6,0 -379.21,-0.11 -568.84,-0.09 -59.91,0 -104.16,30.05 -117.26,80.05 -3.66,14.02 -5.33,28.4 -8,42.96 -43.68,0 -86.08,0 -129.41,0 0,-158.7 0,-316.5 0,-474.2 46.28,0 91.03,0 137.2,0 0,6.06 -0.56,11.08 0.11,15.97 4.29,33.31 16.22,64.11 53.65,79.58 20.92,8.64 45.07,14.18 68.19,15.58 41.11,2.46 82.56,0.68 124.26,0.68 0,-450.91 0,-900.51 0,-1350.15 -3.71,-0.48 -5.97,-0.95 -8.3,-1 -39.73,-0.7 -79.51,-2.95 -119.15,-1.7 -56.32,1.9 -102.09,21.57 -118.65,80.52 -2.87,10.19 -4.38,20.72 -5.45,31.18 -0.94,8.96 -5.59,11.65 -15.84,11.48 -35.67,-0.53 -71.37,-0.26 -107.08,-0.38 -3.23,0 -6.46,-1.15 -9.22,-1.67 0,-158.42 0,-315.86 0,-473.5 46.01,0 90.83,0 136.46,0 0.38,5.76 0.46,10.76 1.04,15.67" /><path
         id="path18"
         style="fill:#ffffff;fill-opacity:1;fill-rule:nonzero;stroke:none"
         d="m 2752.87,3172.35 c 0,0 71.38,185.2 108.98,230.47 37.57,45.38 171,119.81 171,119.81 l 96.77,-350.28 z m 616.28,-270.91 c 0,574.29 -218.88,834.82 -218.88,834.82 0,0 -253.66,-17.23 -434.97,-168.93 -241.92,13.83 -305.33,-70.89 -305.33,-70.89 0,0 152.64,-92.82 168.15,-172.63 -54.27,-106.41 -76.81,-127.82 -76.81,-260.08 0,-132.21 0,-252.14 0,-312.02 0,-50.22 -128.24,-58.11 -128.24,-58.11 v -112.28 h 453.1 v 112.28 c 0,0 -108.53,2 -108.53,58.11 0,80.57 0,216.75 0,216.75 h 446.01 c 0,0 0,-144.82 0,-215.02 0,-50.02 -64.1,-59.84 -64.1,-59.84 v -112.28 h 451.88 v 112.28 c 0,0 -182.28,-4.88 -182.28,207.84" /><path
         id="path20"
         style="fill:#ffffff;fill-opacity:1;fill-rule:nonzero;stroke:none"
         d="m 4396.78,3295.48 c -78.44,0 -283.71,0 -362.85,0 -79.15,0 -81.98,45.32 -81.98,45.32 h -121.42 v -336.92 h 121.42 c 0,0 47.83,100.46 93.95,100.46 46.08,0 95.36,0 130.57,0 35.25,0 58.28,-69.89 58.28,-130.99 0,-61.08 -49.76,-183.17 -220.79,-183.17 -170.98,0 -334.46,185.17 -334.46,355.59 0,170.4 159.51,353.64 388.85,353.64 229.34,0 359.91,-158.61 359.91,-158.61 l 181.36,301.44 -132.47,64.99 c 0,0 -96.79,-98.99 -168.2,-62.07 -71.4,36.99 -99.21,62.07 -244.28,62.07 -145.05,0 -627.54,-141.39 -627.54,-548.45 0,-407.07 351.81,-577.46 514.82,-577.46 295.46,0 336.34,66.49 336.34,66.49 167.72,-97.55 261.17,-66.49 261.17,-66.49 0,0 -122.12,219.64 -152.68,714.16" /><path
         id="path22"
         style="fill:#ffffff;fill-opacity:1;fill-rule:nonzero;stroke:none"
         d="m 5154.13,3499.41 c 229.34,0 359.91,-158.61 359.91,-158.61 l 181.3,301.44 -132.43,64.99 c 0,0 -96.77,-98.99 -168.18,-62.07 -71.21,36.83 -99.09,61.95 -243.1,62.07 -0.15,0 -0.28,0 -0.34,0 -0.34,0 -0.56,0 -0.83,0 -1.27,0 -2.54,0 -3.84,-0.05 -337.26,-1.32 -440.11,-135.66 -498.52,-230.92 -74.03,-80.52 -125.24,-184.9 -125.24,-317.48 0,-407.07 351.84,-577.46 514.85,-577.46 284.91,0 321.94,23.23 404,91.6 69.78,13.3 110.62,-47.28 110.62,-47.28 l 112.04,103.43 -211.38,224.61 c -48.94,-66.06 -114.19,-163.5 -353.28,-163.5 -134.42,0 -264.17,114.46 -313.51,246.2 h 243.08 l 163.48,-47.63 203.85,146.64 v 72.4 l -203.85,106.78 -163.48,-60.95 H 4785.8 c 50,131.76 187.45,245.79 368.33,245.79" /><path
         id="path24"
         style="fill:#040606;fill-opacity:1;fill-rule:nonzero;stroke:none"
         d="m 7367.84,1061.93 h -255 v 42.06 h 255 v -42.06" /><path
         id="path26"
         style="fill:#040606;fill-opacity:1;fill-rule:nonzero;stroke:none"
         d="m 7219.31,807.961 v 274.999 h 42.06 V 807.961 h -42.06" /><path
         id="path28"
         style="fill:#040606;fill-opacity:1;fill-rule:nonzero;stroke:none"
         d="m 7410.79,807.961 v 296.029 h 49.55 V 807.961 h -49.55" /><path
         id="path30"
         style="fill:#040606;fill-opacity:1;fill-rule:nonzero;stroke:none"
         d="m 7555.79,832.961 -145,271.029 h 51.02 l 145,-271.029 h -51.02" /><path
         id="path32"
         style="fill:#040606;fill-opacity:1;fill-rule:nonzero;stroke:none"
         d="m 7751.78,807.961 v 296.029 h -49.55 V 807.961 h 49.55" /><path
         id="path34"
         style="fill:#040606;fill-opacity:1;fill-rule:nonzero;stroke:none"
         d="m 7606.78,832.961 145,271.029 h -51.02 l -145,-271.029 h 51.02" /><path
         id="path36"
         style="fill:#ffffff;fill-opacity:1;fill-rule:nonzero;stroke:none"
         d="m 1638.68,7231.93 c 163.33,163.34 296.66,320 586.66,286.67 0,0 -136.66,-223.33 -586.66,-286.67" /><path
         id="path38"
         style="fill:#ffffff;fill-opacity:1;fill-rule:nonzero;stroke:none"
         d="m 3765.34,8126.93 c 0,0 630,210 1105,0 475,-210 535,-355 1115,-700 -885,250 -1215,790 -2220,700" /><path
         id="path40"
         style="fill:#ffffff;fill-opacity:1;fill-rule:nonzero;stroke:none"
         d="m 6625.34,6781.93 c 325,-130 845,-365 850,-940 -215,380 -340,600 -850,940" /><path
         id="path42"
         style="fill:#ffffff;fill-opacity:1;fill-rule:nonzero;stroke:none"
         d="m 6080.34,739.859 c 130,327.071 620,478.541 910,957.071 0,0 -149.56,-860.371 -910,-957.071" /><path
         id="path44"
         style="fill:#ffffff;fill-opacity:1;fill-rule:nonzero;stroke:none"
         d="m 1325.34,1581.93 c 0,0 130,-370 520,-565 -145,310 -355,320 -520,565" /><path
         id="path46"
         style="fill:#ffffff;fill-opacity:1;fill-rule:nonzero;stroke:none"
         d="m 920.344,4046.93 c -275,305 -180,1140 249.996,1680 -274.996,-730 -127.28,-1185.12 -249.996,-1680" /><path
         id="path48"
         style="fill:#ffffff;fill-opacity:1;fill-rule:nonzero;stroke:none"
         d="m 1405.34,6056.93 c 0,0 20,130 180,195 0,0 -10,-125 -180,-195" /><path
         id="path50"
         style="fill:#ffffff;fill-opacity:1;fill-rule:nonzero;stroke:none"
         d="m 2685.34,7178.6 c 400,236.67 930,336.67 1346.67,313.33 416.67,-23.33 733.33,-236.66 1060,-313.33 326.67,-76.67 620,-256.67 730,-363.33 110,-106.67 376.67,-400 513.33,-483.34 -306.66,120 -449.99,376.67 -713.33,503.34 -263.33,126.66 -556.67,143.33 -790,330 -199.25,159.4 -439.88,212.26 -783.33,212.26 -470,0 -860,-198.93 -1363.34,-198.93" /><path
         id="path52"
         style="fill:#ffffff;fill-opacity:1;fill-rule:nonzero;stroke:none"
         d="m 6465.34,6195.27 c 0,0 260,-100 363.34,-320 103.33,-220 86.66,-333.34 180,-476.67 93.33,-143.33 293.33,-506.67 270,-700 -23.34,-193.33 -113.34,-336.67 -113.34,-336.67 -133.33,233.34 -136.66,436.67 -156.66,666.67 -20,230 -36.67,463.33 -210,663.33 -173.34,200 -270,350 -333.34,503.34" /><path
         id="path54"
         style="fill:#ffffff;fill-opacity:1;fill-rule:nonzero;stroke:none"
         d="m 1042.84,3639.43 c 0,0 -7.5,-215 97.5,-322.5 90,107.5 -97.5,322.5 -97.5,322.5" /><path
         id="path56"
         style="fill:#ffffff;fill-opacity:1;fill-rule:nonzero;stroke:none"
         d="m 1270.34,3116.93 c 15,-195 170,-575 400,-695 -66.08,227.24 -265,399.36 -400,695" /><path
         id="path58"
         style="fill:#ffffff;fill-opacity:1;fill-rule:nonzero;stroke:none"
         d="m 1975.34,2071.93 c 0,0 336.42,-380.97 695,-575 365,-197.5 723.86,-264.69 940,-288.53 451.67,-49.8 838.34,-316.47 1878.34,263.53 -695.47,-271.5 -1253.34,-345 -1838.34,-195 -582.67,149.41 -613.82,217.29 -920,400 -310,185 -610,300 -755,395" /><path
         id="path60"
         style="fill:#ffffff;fill-opacity:1;fill-rule:nonzero;stroke:none"
         d="m 6088.68,7298.6 c 180,-80 273.33,-273.33 393.33,-413.33 -200,45.01 -300,306.66 -393.33,413.33" /><path
         id="path62"
         style="fill:#ffffff;fill-opacity:1;fill-rule:nonzero;stroke:none"
         d="m 4265.34,6728.6 c 0,0 136.67,-146.67 -29.8,-196.67 -96.86,60 -56.86,150 29.8,196.67" /><path
         id="path64"
         style="fill:#ffffff;fill-opacity:1;fill-rule:nonzero;stroke:none"
         d="m 1785.15,5041.93 c 0,0 100.19,-145 -26.42,-163.77 -73.53,50 -60.25,117.11 26.42,163.77" /><path
         id="path66"
         style="fill:#ffffff;fill-opacity:1;fill-rule:nonzero;stroke:none"
         d="m 1996.47,2937.68 c 0,0 172.21,-15.75 87.68,-146.59 -65.47,-0.18 -103.49,73.18 -87.68,146.59" /><path
         id="path68"
         style="fill:#ffffff;fill-opacity:1;fill-rule:nonzero;stroke:none"
         d="m 3754.51,1898.41 c 0,0 123.26,-178.38 -32.51,-201.48 -90.45,61.52 -74.11,144.08 32.51,201.48" /><path
         id="path70"
         style="fill:#ffffff;fill-opacity:1;fill-rule:nonzero;stroke:none"
         d="m 5237.78,6420.27 c 0,0 127.56,-108.34 20.19,-171.67 -73.52,40.1 -106.85,134.25 -20.19,171.67" /><path
         id="path72"
         style="fill:#ffffff;fill-opacity:1;fill-rule:nonzero;stroke:none"
         d="m 6444.31,4096.93 c 0,0 91.03,-131.66 -49.8,-161.66 -73.54,40.09 -36.87,124.24 49.8,161.66" /><path
         id="path74"
         style="fill:#ffffff;fill-opacity:1;fill-rule:nonzero;stroke:none"
         d="m 5514.05,2316.42 c 0,0 5.05,122.46 97.48,93.37 39.22,-73.99 -4.55,-109.97 -97.48,-93.37" /><path
         id="path76"
         style="fill:#ffffff;fill-opacity:1;fill-rule:nonzero;stroke:none"
         d="m 4770.59,1833.68 c 0,0 -112.74,96.43 -3.78,159.23 73.71,-41.12 62.9,-93.67 3.78,-159.23" /><path
         id="path78"
         style="fill:#ffffff;fill-opacity:1;fill-rule:nonzero;stroke:none"
         d="m 2241.51,5929.68 c 0,0 153.83,0 91.32,-147.76 -99.85,10.01 -118.68,57.41 -91.32,147.76" /><path
         id="path80"
         style="fill:#ffffff;fill-opacity:1;fill-rule:nonzero;stroke:none"
         d="m 1676.85,3891 c 0,0 100.01,-84.62 39.18,-169.23 -91.38,41.48 -94.04,92.4 -39.18,169.23" /><path
         id="path82"
         style="fill:#ffffff;fill-opacity:1;fill-rule:nonzero;stroke:none"
         d="m 2705.84,2046.7 c 0,0 -57.16,145.23 94.15,167.08 62.85,-118.52 -3.48,-140.8 -94.15,-167.08" /><path
         id="path84"
         style="fill:#ffffff;fill-opacity:1;fill-rule:nonzero;stroke:none"
         d="m 3152.01,6572.6 c 0,0 153.33,-81.17 44.06,-162.33 -73.53,40.09 -130.73,124.91 -44.06,162.33" /><path
         id="path86"
         style="fill:#ffffff;fill-opacity:1;fill-rule:nonzero;stroke:none"
         d="m 6220.7,3155.89 c 0,0 -15.36,-140.63 -137.94,-105.99 4.07,83.65 66.51,167.72 137.94,105.99" /><path
         id="path88"
         style="fill:#ffffff;fill-opacity:1;fill-rule:nonzero;stroke:none"
         d="m 6370.49,4983.26 c 0,0 73.44,-142.91 -70.31,-166.33 0,0 -73.44,101.95 70.31,166.33" /><path
         id="path90"
         style="fill:#ffffff;fill-opacity:1;fill-rule:nonzero;stroke:none"
         d="m 5983.44,5756.71 c 0,0 109.21,-138.3 -33.25,-168.57 0,0 -107.25,97.38 33.25,168.57" /></g></g></svg>