<svg id="Layer_3" enable-background="new 0 0 64 64" height="512" viewBox="0 0 64 64" width="512" xmlns="http://www.w3.org/2000/svg"><path d="m4.707 13.293c1.101 1.101 2.564 1.707 4.122 1.707h1.171c.265 0 .52.105.707.293l2.053 2.053c1.069-1.922 2.418-3.666 3.99-5.181l-1.458-1.458c-.187-.187-.292-.442-.292-.707v-1.171c0-1.557-.606-3.021-1.707-4.122l-.171-.171c-.991-.991-2.308-1.536-3.708-1.536-.635 0-1.258.258-1.707.707s-.707 1.072-.707 1.707v.586c0 .552-.448 1-1 1h-.586c-.635 0-1.258.258-1.707.707s-.707 1.072-.707 1.707c0 1.4.545 2.717 1.536 3.708z"/><path d="m16 49v-5c0-.178-.031-.347-.075-.511l-5.218 5.218c-.187.188-.442.293-.707.293h-1.171c-1.557 0-3.021.606-4.122 1.707l-.171.171c-.991.991-1.536 2.308-1.536 3.708 0 .635.258 1.258.707 1.707s1.072.707 1.707.707h.586c.552 0 1 .448 1 1v.586c0 .635.258 1.258.707 1.707s1.072.707 1.707.707c1.4 0 2.717-.545 3.708-1.536l.171-.171c1.101-1.101 1.707-2.564 1.707-4.122v-1.171c0-.265.105-.52.293-.707l1.908-1.908c-.725-.548-1.201-1.408-1.201-2.385z"/><path d="m31 11v-2.949c-1.637.082-3.226.344-4.738.798l4.738 4.737z"/><path d="m53.293 15.293c.187-.188.442-.293.707-.293h1.171c1.557 0 3.021-.606 4.122-1.707l.171-.171c.991-.991 1.536-2.308 1.536-3.708 0-.635-.258-1.258-.707-1.707s-1.072-.707-1.707-.707h-.586c-.552 0-1-.448-1-1v-.586c0-.635-.258-1.258-.707-1.707s-1.072-.707-1.707-.707c-1.4 0-2.717.545-3.708 1.536l-.171.171c-1.101 1.101-1.707 2.564-1.707 4.122v1.171c0 .265-.105.52-.293.707l-1.458 1.458c1.573 1.515 2.922 3.259 3.99 5.181z"/><circle cx="41" cy="25" r="5"/><path d="m41 18c3.86 0 7 3.14 7 7 0 1.57-.526 3.015-1.402 4.184l5.402 5.402v-6.586c0-10.69-8.438-19.423-19-19.949v2.535l2.414 2.414h2.586v2h-3c-.265 0-.52-.105-.707-.293l-1.293-1.293v2.172l3.816 3.816c1.169-.876 2.614-1.402 4.184-1.402z"/><path d="m59.293 50.707c-1.101-1.101-2.564-1.707-4.122-1.707h-1.171c-.265 0-.52-.105-.707-.293l-5.218-5.218c-.044.164-.075.333-.075.511v5c0 .977-.476 1.837-1.201 2.385l1.908 1.908c.188.187.293.442.293.707v1.171c0 1.557.606 3.021 1.707 4.122l.171.171c.99.99 2.307 1.536 3.708 1.536.635 0 1.258-.258 1.707-.707s.707-1.072.707-1.707v-.586c0-.552.448-1 1-1h.586c.635 0 1.258-.258 1.707-.707s.707-1.072.707-1.707c0-1.4-.545-2.717-1.536-3.708z"/><path d="m50 40c1.103 0 2-.897 2-2v-.586l-6.816-6.816c-1.169.876-2.614 1.402-4.184 1.402-3.86 0-7-3.14-7-7 0-1.57.526-3.015 1.402-4.184l-2.902-2.902-1.793 1.793-1.414-1.414 1.707-1.707v-.172l-6.82-6.82c-7.152 3.051-12.18 10.152-12.18 18.406v8h3.586l1.707-1.707c.187-.188.442-.293.707-.293h4v2h-3.586l2.293 2.293c.188.187.293.442.293.707v3h-2v-2.586l-2-2-.293.293c-.187.188-.442.293-.707.293h-4c0 1.103.897 2 2 2 2.206 0 4 1.794 4 4v5c0 .551.449 1 1 1h3v-6h2v6h4v-6h2v6h4v-6h2v6h4v-6h2v6h3c.551 0 1-.449 1-1v-5c0-2.206 1.794-4 4-4zm-27-8c-3.86 0-7-3.14-7-7s3.14-7 7-7 7 3.14 7 7-3.14 7-7 7zm12.293 7.707-3.293-3.293-3.293 3.293-1.414-1.414 4-4c.391-.391 1.023-.391 1.414 0l4 4z"/><path d="m26 56h12c2.414 0 4.434-1.721 4.899-4h-21.798c.465 2.279 2.485 4 4.899 4z"/><circle cx="23" cy="25" r="5"/></svg>